<mxfile host="app.diagrams.net" modified="2024-02-01T05:13:48.663Z" agent="Mozilla/5.0 (X11; Linux x86_64; rv:122.0) Gecko/20100101 Firefox/122.0" etag="QOLsJVMAQayNf00Jg08F" version="22.1.21" type="device">
  <diagram name="Page-1" id="2YBvvXClWsGukQMizWep">
    <mxGraphModel dx="1114" dy="596" grid="1" gridSize="10" guides="1" tooltips="1" connect="1" arrows="1" fold="1" page="1" pageScale="1" pageWidth="850" pageHeight="1100" math="0" shadow="0">
      <root>
        <mxCell id="0" />
        <mxCell id="1" parent="0" />
        <mxCell id="aM9ryv3xv72pqoxQDRHE-1" value="&lt;div&gt;Fiber&lt;/div&gt;" style="shape=umlLifeline;perimeter=lifelinePerimeter;whiteSpace=wrap;html=1;container=0;dropTarget=0;collapsible=0;recursiveResize=0;outlineConnect=0;portConstraint=eastwest;newEdgeStyle={&quot;edgeStyle&quot;:&quot;elbowEdgeStyle&quot;,&quot;elbow&quot;:&quot;vertical&quot;,&quot;curved&quot;:0,&quot;rounded&quot;:0};size=20;" parent="1" vertex="1">
          <mxGeometry x="145" y="60" width="100" height="280" as="geometry" />
        </mxCell>
        <mxCell id="aM9ryv3xv72pqoxQDRHE-2" value="" style="html=1;points=[];perimeter=orthogonalPerimeter;outlineConnect=0;targetShapes=umlLifeline;portConstraint=eastwest;newEdgeStyle={&quot;edgeStyle&quot;:&quot;elbowEdgeStyle&quot;,&quot;elbow&quot;:&quot;vertical&quot;,&quot;curved&quot;:0,&quot;rounded&quot;:0};movable=1;resizable=1;rotatable=1;deletable=1;editable=1;locked=0;connectable=1;" parent="aM9ryv3xv72pqoxQDRHE-1" vertex="1">
          <mxGeometry x="45" y="30" width="10" height="240" as="geometry" />
        </mxCell>
        <mxCell id="aM9ryv3xv72pqoxQDRHE-5" value="&lt;div&gt;Promise&lt;/div&gt;&lt;div&gt;atomic(state)&lt;br&gt;&lt;/div&gt;" style="shape=umlLifeline;perimeter=lifelinePerimeter;whiteSpace=wrap;html=1;container=0;dropTarget=0;collapsible=0;recursiveResize=0;outlineConnect=0;portConstraint=eastwest;newEdgeStyle={&quot;edgeStyle&quot;:&quot;elbowEdgeStyle&quot;,&quot;elbow&quot;:&quot;vertical&quot;,&quot;curved&quot;:0,&quot;rounded&quot;:0};" parent="1" vertex="1">
          <mxGeometry x="325" y="60" width="100" height="110" as="geometry" />
        </mxCell>
        <mxCell id="aM9ryv3xv72pqoxQDRHE-6" value="" style="html=1;points=[];perimeter=orthogonalPerimeter;outlineConnect=0;targetShapes=umlLifeline;portConstraint=eastwest;newEdgeStyle={&quot;edgeStyle&quot;:&quot;elbowEdgeStyle&quot;,&quot;elbow&quot;:&quot;vertical&quot;,&quot;curved&quot;:0,&quot;rounded&quot;:0};" parent="aM9ryv3xv72pqoxQDRHE-5" vertex="1">
          <mxGeometry x="45" y="50" width="10" height="60" as="geometry" />
        </mxCell>
        <mxCell id="aM9ryv3xv72pqoxQDRHE-7" value="&lt;div&gt;&lt;font face=&quot;Courier New&quot;&gt;Atomic.get p.state&lt;/font&gt;&lt;/div&gt;" style="html=1;verticalAlign=bottom;endArrow=block;edgeStyle=elbowEdgeStyle;elbow=vertical;curved=0;rounded=0;" parent="1" source="aM9ryv3xv72pqoxQDRHE-2" edge="1">
          <mxGeometry relative="1" as="geometry">
            <mxPoint x="200" y="115" as="sourcePoint" />
            <Array as="points">
              <mxPoint x="285" y="115" />
            </Array>
            <mxPoint x="370" y="115" as="targetPoint" />
          </mxGeometry>
        </mxCell>
        <mxCell id="aM9ryv3xv72pqoxQDRHE-9" value="&lt;div&gt;&lt;font face=&quot;Courier New&quot;&gt;Unfulfilled cqs&lt;/font&gt;&lt;/div&gt;" style="html=1;verticalAlign=top;endArrow=block;edgeStyle=elbowEdgeStyle;elbow=vertical;curved=0;rounded=0;labelPosition=center;verticalLabelPosition=bottom;align=center;" parent="1" target="aM9ryv3xv72pqoxQDRHE-2" edge="1">
          <mxGeometry x="-0.0588" relative="1" as="geometry">
            <mxPoint x="370" y="120" as="sourcePoint" />
            <Array as="points">
              <mxPoint x="295" y="120" />
            </Array>
            <mxPoint x="200" y="120" as="targetPoint" />
            <mxPoint as="offset" />
          </mxGeometry>
        </mxCell>
        <mxCell id="Q2cc-fF_ZDFOVpW6K_zl-1" value="&lt;div&gt;Fiber&lt;/div&gt;" style="shape=umlLifeline;perimeter=lifelinePerimeter;whiteSpace=wrap;html=1;container=0;dropTarget=0;collapsible=0;recursiveResize=0;outlineConnect=0;portConstraint=eastwest;newEdgeStyle={&quot;edgeStyle&quot;:&quot;elbowEdgeStyle&quot;,&quot;elbow&quot;:&quot;vertical&quot;,&quot;curved&quot;:0,&quot;rounded&quot;:0};size=20;" parent="1" vertex="1">
          <mxGeometry x="100" y="70" width="100" height="130" as="geometry" />
        </mxCell>
        <mxCell id="Q2cc-fF_ZDFOVpW6K_zl-2" value="" style="html=1;points=[];perimeter=orthogonalPerimeter;outlineConnect=0;targetShapes=umlLifeline;portConstraint=eastwest;newEdgeStyle={&quot;edgeStyle&quot;:&quot;elbowEdgeStyle&quot;,&quot;elbow&quot;:&quot;vertical&quot;,&quot;curved&quot;:0,&quot;rounded&quot;:0};" parent="Q2cc-fF_ZDFOVpW6K_zl-1" vertex="1">
          <mxGeometry x="45" y="30" width="10" height="100" as="geometry" />
        </mxCell>
        <mxCell id="Q2cc-fF_ZDFOVpW6K_zl-4" value="Promise&#39;s Fiber" style="shape=umlLifeline;perimeter=lifelinePerimeter;whiteSpace=wrap;html=1;container=0;dropTarget=0;collapsible=0;recursiveResize=0;outlineConnect=0;portConstraint=eastwest;newEdgeStyle={&quot;edgeStyle&quot;:&quot;elbowEdgeStyle&quot;,&quot;elbow&quot;:&quot;vertical&quot;,&quot;curved&quot;:0,&quot;rounded&quot;:0};size=20;" parent="1" vertex="1">
          <mxGeometry x="490" y="60" width="100" height="240" as="geometry" />
        </mxCell>
        <mxCell id="Q2cc-fF_ZDFOVpW6K_zl-5" value="" style="html=1;points=[];perimeter=orthogonalPerimeter;outlineConnect=0;targetShapes=umlLifeline;portConstraint=eastwest;newEdgeStyle={&quot;edgeStyle&quot;:&quot;elbowEdgeStyle&quot;,&quot;elbow&quot;:&quot;vertical&quot;,&quot;curved&quot;:0,&quot;rounded&quot;:0};" parent="Q2cc-fF_ZDFOVpW6K_zl-4" vertex="1">
          <mxGeometry x="45" y="30" width="10" height="190" as="geometry" />
        </mxCell>
        <mxCell id="Q2cc-fF_ZDFOVpW6K_zl-7" value="CQS" style="shape=umlLifeline;perimeter=lifelinePerimeter;whiteSpace=wrap;html=1;container=0;dropTarget=0;collapsible=0;recursiveResize=0;outlineConnect=0;portConstraint=eastwest;newEdgeStyle={&quot;edgeStyle&quot;:&quot;elbowEdgeStyle&quot;,&quot;elbow&quot;:&quot;vertical&quot;,&quot;curved&quot;:0,&quot;rounded&quot;:0};size=20;" parent="1" vertex="1">
          <mxGeometry x="325" y="200" width="100" height="140" as="geometry" />
        </mxCell>
        <mxCell id="Q2cc-fF_ZDFOVpW6K_zl-8" value="" style="html=1;points=[];perimeter=orthogonalPerimeter;outlineConnect=0;targetShapes=umlLifeline;portConstraint=eastwest;newEdgeStyle={&quot;edgeStyle&quot;:&quot;elbowEdgeStyle&quot;,&quot;elbow&quot;:&quot;vertical&quot;,&quot;curved&quot;:0,&quot;rounded&quot;:0};" parent="Q2cc-fF_ZDFOVpW6K_zl-7" vertex="1">
          <mxGeometry x="45" y="30" width="10" height="80" as="geometry" />
        </mxCell>
        <mxCell id="Q2cc-fF_ZDFOVpW6K_zl-9" value="&lt;div&gt;&lt;font style=&quot;font-size: 8px;&quot; face=&quot;Courier New&quot;&gt;Atomic.set p.state (Fulfilled v)&lt;/font&gt;&lt;br&gt;&lt;/div&gt;" style="html=1;verticalAlign=bottom;endArrow=block;edgeStyle=elbowEdgeStyle;elbow=vertical;curved=0;rounded=0;" parent="1" edge="1">
          <mxGeometry relative="1" as="geometry">
            <mxPoint x="535" y="136" as="sourcePoint" />
            <Array as="points">
              <mxPoint x="395" y="136" />
            </Array>
            <mxPoint x="380" y="136" as="targetPoint" />
          </mxGeometry>
        </mxCell>
        <mxCell id="Q2cc-fF_ZDFOVpW6K_zl-11" value="&lt;div&gt;&lt;font face=&quot;Courier New&quot;&gt;Atomic.get p.state&lt;/font&gt;&lt;/div&gt;" style="html=1;verticalAlign=bottom;endArrow=block;edgeStyle=elbowEdgeStyle;elbow=vertical;curved=0;rounded=0;" parent="1" source="Q2cc-fF_ZDFOVpW6K_zl-2" target="aM9ryv3xv72pqoxQDRHE-6" edge="1">
          <mxGeometry relative="1" as="geometry">
            <mxPoint x="155" y="160" as="sourcePoint" />
            <Array as="points">
              <mxPoint x="285" y="160" />
            </Array>
            <mxPoint x="370" y="160" as="targetPoint" />
          </mxGeometry>
        </mxCell>
        <mxCell id="Q2cc-fF_ZDFOVpW6K_zl-12" value="&lt;font face=&quot;Courier New&quot;&gt;Fulfilled v&lt;/font&gt;" style="html=1;verticalAlign=top;endArrow=block;edgeStyle=elbowEdgeStyle;elbow=vertical;curved=0;rounded=0;labelPosition=center;verticalLabelPosition=bottom;align=center;" parent="1" target="Q2cc-fF_ZDFOVpW6K_zl-2" edge="1">
          <mxGeometry x="0.0031" relative="1" as="geometry">
            <mxPoint x="370" y="167" as="sourcePoint" />
            <Array as="points">
              <mxPoint x="295" y="167" />
            </Array>
            <mxPoint x="155" y="167" as="targetPoint" />
            <mxPoint as="offset" />
          </mxGeometry>
        </mxCell>
        <mxCell id="Q2cc-fF_ZDFOVpW6K_zl-14" value="" style="endArrow=classic;html=1;rounded=0;labelPosition=center;verticalLabelPosition=top;align=center;verticalAlign=bottom;" parent="1" source="Q2cc-fF_ZDFOVpW6K_zl-2" edge="1">
          <mxGeometry width="50" height="50" relative="1" as="geometry">
            <mxPoint x="260" y="300" as="sourcePoint" />
            <mxPoint x="80" y="190" as="targetPoint" />
          </mxGeometry>
        </mxCell>
        <mxCell id="Q2cc-fF_ZDFOVpW6K_zl-16" value="&lt;font face=&quot;Courier New&quot;&gt;return v&lt;br&gt;&lt;/font&gt;" style="edgeLabel;html=1;align=center;verticalAlign=bottom;resizable=0;points=[];labelPosition=center;verticalLabelPosition=top;" parent="Q2cc-fF_ZDFOVpW6K_zl-14" vertex="1" connectable="0">
          <mxGeometry x="0.2116" y="1" relative="1" as="geometry">
            <mxPoint x="5" y="-1" as="offset" />
          </mxGeometry>
        </mxCell>
        <mxCell id="Q2cc-fF_ZDFOVpW6K_zl-23" value="&lt;div&gt;&lt;font face=&quot;Courier New&quot;&gt;resume_all cqs&lt;br&gt;&lt;/font&gt;&lt;/div&gt;" style="html=1;verticalAlign=bottom;endArrow=block;edgeStyle=elbowEdgeStyle;elbow=vertical;curved=0;rounded=0;" parent="1" edge="1">
          <mxGeometry relative="1" as="geometry">
            <mxPoint x="535" y="245" as="sourcePoint" />
            <Array as="points">
              <mxPoint x="465" y="245" />
            </Array>
            <mxPoint x="380" y="245" as="targetPoint" />
          </mxGeometry>
        </mxCell>
        <mxCell id="Q2cc-fF_ZDFOVpW6K_zl-24" value="Suspend Effect" style="verticalLabelPosition=top;verticalAlign=bottom;html=1;shape=mxgraph.basic.patternFillRect;fillStyle=diag;step=5;fillStrokeWidth=0.2;fillStrokeColor=#dddddd;labelPosition=center;align=center;direction=north;rotation=270;" parent="1" vertex="1">
          <mxGeometry x="133.44" y="244.07" width="123.13" height="28.75" as="geometry" />
        </mxCell>
        <mxCell id="Q2cc-fF_ZDFOVpW6K_zl-28" value="&lt;div&gt;&lt;font face=&quot;Courier New&quot;&gt;suspend cqs waker&lt;br&gt;&lt;/font&gt;&lt;/div&gt;" style="html=1;verticalAlign=bottom;endArrow=block;edgeStyle=elbowEdgeStyle;elbow=vertical;curved=0;rounded=0;" parent="1" edge="1">
          <mxGeometry relative="1" as="geometry">
            <mxPoint x="200" y="245" as="sourcePoint" />
            <Array as="points">
              <mxPoint x="230" y="245" />
            </Array>
            <mxPoint x="370" y="245" as="targetPoint" />
          </mxGeometry>
        </mxCell>
        <mxCell id="Q2cc-fF_ZDFOVpW6K_zl-30" value="&lt;div&gt;&lt;font face=&quot;Courier New&quot;&gt;cancel cqs CancelToken&lt;/font&gt;&lt;/div&gt;" style="html=1;verticalAlign=bottom;endArrow=block;edgeStyle=elbowEdgeStyle;elbow=vertical;curved=0;rounded=0;dashed=1;dashPattern=12 12;" parent="1" edge="1">
          <mxGeometry relative="1" as="geometry">
            <mxPoint x="200" y="299" as="sourcePoint" />
            <Array as="points">
              <mxPoint x="220" y="299" />
              <mxPoint x="350" y="279" />
            </Array>
            <mxPoint x="370" y="299" as="targetPoint" />
          </mxGeometry>
        </mxCell>
        <mxCell id="Q2cc-fF_ZDFOVpW6K_zl-31" value="&lt;div&gt;&lt;font face=&quot;Courier New&quot;&gt;CancelToken&lt;br&gt;&lt;/font&gt;&lt;/div&gt;" style="html=1;verticalAlign=top;endArrow=block;edgeStyle=elbowEdgeStyle;elbow=vertical;curved=0;rounded=0;labelPosition=center;verticalLabelPosition=bottom;align=center;" parent="1" edge="1">
          <mxGeometry relative="1" as="geometry">
            <mxPoint x="370" y="251.50333333333336" as="sourcePoint" />
            <Array as="points" />
            <mxPoint x="200" y="251.50333333333336" as="targetPoint" />
          </mxGeometry>
        </mxCell>
        <mxCell id="Q2cc-fF_ZDFOVpW6K_zl-36" value="suspend/resume_all/cancel operations can race" style="verticalLabelPosition=bottom;verticalAlign=top;html=1;shape=mxgraph.basic.polygon;polyCoords=[[0.25,0],[0.75,0],[1,0.25],[1,0.75],[0.75,1],[0.25,1],[0,0.75],[0,0.25]];polyline=0;fillStyle=solid;fillColor=#FFE599;opacity=20;labelPosition=center;align=center;" parent="1" vertex="1">
          <mxGeometry x="170" y="210" width="390" height="130" as="geometry" />
        </mxCell>
      </root>
    </mxGraphModel>
  </diagram>
</mxfile>
